<?xml version="1.0" encoding="UTF-8" standalone="no"?>
<!-- Created with Inkscape (http://www.inkscape.org/) -->

<svg
   xmlns:dc="http://purl.org/dc/elements/1.1/"
   xmlns:cc="http://creativecommons.org/ns#"
   xmlns:rdf="http://www.w3.org/1999/02/22-rdf-syntax-ns#"
   xmlns:svg="http://www.w3.org/2000/svg"
   xmlns="http://www.w3.org/2000/svg"
   xmlns:sodipodi="http://sodipodi.sourceforge.net/DTD/sodipodi-0.dtd"
   xmlns:inkscape="http://www.inkscape.org/namespaces/inkscape"
   width="728"
   height="320"
   id="svg2"
   version="1.1"
   inkscape:version="0.91 r13725"
   sodipodi:docname="colab-full.svg">
  <defs
     id="defs4" />
  <sodipodi:namedview
     id="base"
     pagecolor="#ffffff"
     bordercolor="#666666"
     borderopacity="1.0"
     inkscape:pageopacity="0.0"
     inkscape:pageshadow="2"
     inkscape:zoom="0.98994949"
     inkscape:cx="217.58216"
     inkscape:cy="76.230729"
     inkscape:document-units="px"
     inkscape:current-layer="text4202"
     showgrid="false"
     showborder="true"
     inkscape:window-width="1920"
     inkscape:window-height="1015"
     inkscape:window-x="0"
     inkscape:window-y="0"
     inkscape:window-maximized="1" />
  <metadata
     id="metadata7">
    <rdf:RDF>
      <cc:Work
         rdf:about="">
        <dc:format>image/svg+xml</dc:format>
        <dc:type
           rdf:resource="http://purl.org/dc/dcmitype/StillImage" />
        <dc:title />
      </cc:Work>
    </rdf:RDF>
  </metadata>
  <g
     inkscape:label="Calque 1"
     inkscape:groupmode="layer"
     id="layer1"
     transform="translate(0,-732.36218)">
    <g
       transform="matrix(1.6664342,0,0,1.4335656,-351.50882,643.20411)"
       style="font-style:normal;font-weight:normal;font-size:273px;line-height:125%;font-family:Sans;letter-spacing:0px;word-spacing:0px;fill:#000000;fill-opacity:1;stroke:none"
       id="flowRoot2985">
      <path
         d="m 296.21191,276.69309 q -18.66211,0 -33.7251,-6.66504 -14.92969,-6.66504 -25.59375,-20.39502 -10.53076,-13.59668 -15.86279,-32.65869 -5.19873,-19.19532 -5.19873,-43.32276 0,-24.12744 5.19873,-43.32275 5.33203,-19.19531 15.99609,-32.925293 10.66406,-13.729981 25.59375,-20.39502 14.92969,-6.79834 33.5918,-6.79834 6.39843,0 12.26367,0.799805 5.99853,0.666504 10.79736,1.866211 4.79883,1.199707 10.53076,3.46582 5.73194,2.132813 10.53077,4.798828 l 0,27.593259 q -9.73096,-8.13134 -21.19483,-12.39697 -5.73193,-2.132812 -11.46387,-3.199218 -5.59863,-1.066407 -11.59716,-1.066407 -12.93018,0 -22.79444,5.06543 -9.73095,5.065425 -16.26269,15.196285 -13.06348,20.26172 -13.06348,61.18506 0,40.79004 13.06348,61.05176 13.06347,20.26172 39.32373,20.26172 5.99853,0 11.59717,-1.06641 5.73193,-1.0664 11.46386,-3.19922 11.06397,-4.13232 20.92823,-12.39697 l 0,27.59326 q -10.39747,5.46534 -21.06153,8.26465 -5.19873,1.33301 -11.19726,1.99951 -5.86524,0.66651 -11.86377,0.66651 z"
         style="font-style:normal;font-variant:normal;font-weight:normal;font-stretch:normal;font-size:273px;font-family:hack;-inkscape-font-specification:hack;text-align:center;baseline-shift:baseline;text-anchor:middle"
         id="path4211"
         inkscape:connector-curvature="0" />
    </g>
    <g
       transform="matrix(1.054988,0,0,0.94787808,-42.426407,-2.0203051)"
       style="font-style:normal;font-weight:normal;font-size:322.87692261px;line-height:125%;font-family:Sans;letter-spacing:0px;word-spacing:0px;fill:#000000;fill-opacity:1;stroke:none"
       id="text3006">
      <path
         d="m 184.86369,1038.1841 q -18.13019,0 -32.31904,-5.8331 -14.03118,-5.9909 -23.80572,-17.8149 -9.93219,-12.297 -14.6618,-29.63894 -4.72962,-17.49958 -4.72962,-39.57111 0,-44.77368 19.39142,-68.73706 19.39142,-23.80573 56.12476,-23.80573 18.91845,0 32.79199,6.1485 14.03119,5.99085 23.49042,17.65723 19.39141,23.96338 19.39141,68.57941 0,22.54449 -4.88726,40.04406 -4.72962,17.49954 -14.50415,29.32364 -9.45923,11.6664 -23.64808,17.6572 -14.03118,5.9908 -32.63433,5.9908 z m 0,-24.594 q 22.22918,0 33.58026,-17.34187 11.35107,-17.18427 11.35107,-50.76453 0,-33.58026 -11.35107,-50.92218 -11.35108,-17.18426 -33.58026,-17.18426 -22.07154,0 -33.42261,17.18426 Q 140.09,911.90344 140.09,945.4837 q 0,33.58026 11.35108,50.76453 11.35107,17.34187 33.42261,17.34187 z"
         style="font-style:normal;font-variant:normal;font-weight:normal;font-stretch:normal;font-size:322.875px;font-family:hack;-inkscape-font-specification:hack"
         id="path4214"
         inkscape:connector-curvature="0" />
    </g>
    <g
       style="font-style:normal;font-weight:normal;font-size:40px;line-height:125%;font-family:sans-serif;letter-spacing:0px;word-spacing:0px;fill:#000000;fill-opacity:1;stroke:none;stroke-width:1px;stroke-linecap:butt;stroke-linejoin:miter;stroke-opacity:1"
       id="text4202">
      <path
         d="m 263.64608,731.62369 32.52718,1.01016 9.09137,271.57075 409.39477,0 10e-6,35.0255 -451.01333,0 z"
         style="font-size:421.95440674px"
         id="path4217"
         inkscape:connector-curvature="0"
         sodipodi:nodetypes="ccccccc" />
    </g>
    <g
       style="font-style:normal;font-weight:normal;font-size:40px;line-height:125%;font-family:sans-serif;letter-spacing:0px;word-spacing:0px;fill:#000000;fill-opacity:1;stroke:none;stroke-width:1px;stroke-linecap:butt;stroke-linejoin:miter;stroke-opacity:1"
       id="text4206">
      <path
         d="m 438.97256,895.92279 q -35.15679,0 -48.71502,8.04034 -13.55823,8.04035 -13.55823,27.43177 0,15.45007 10.08984,24.59399 10.2475,8.98627 27.74707,8.98627 24.12104,0 38.62519,-17.02661 14.6618,-17.18427 14.6618,-45.56195 l 0,-6.46381 -28.85065,0 z m 57.85895,-11.98169 0,100.74078 -29.0083,0 0,-26.80114 q -9.93219,16.08069 -24.75165,23.80572 -14.81945,7.56739 -36.26037,7.56739 -27.11646,0 -43.19715,-15.13477 -15.92303,-15.29242 -15.92303,-40.83234 0,-29.79657 19.86438,-44.93133 20.02203,-15.13477 59.59314,-15.13477 l 40.67468,0 0,-2.83777 q 0,-20.02203 -13.24292,-30.90014 -13.08526,-11.03577 -36.89099,-11.03577 -15.13477,0 -29.48126,3.62604 -14.3465,3.62604 -27.58942,10.87811 l 0,-26.80115 q 15.92304,-6.1485 30.90015,-9.14392 14.97711,-3.15307 29.16595,-3.15307 38.30988,0 57.22834,19.86438 18.91845,19.86438 18.91845,60.22375 z"
         style="font-style:normal;font-variant:normal;font-weight:normal;font-stretch:normal;font-size:322.875px;font-family:sans-serif;-inkscape-font-specification:'sans-serif 258.2998046875'"
         id="path4220" />
      <path
         d="m 683.49362,896.55341 q 0,-32.00373 -13.24292,-50.13392 -13.08526,-18.28784 -36.10272,-18.28784 -23.01746,0 -36.26038,18.28784 -13.08526,18.13019 -13.08526,50.13392 0,32.00372 13.08526,50.29156 13.24292,18.13019 36.26038,18.13019 23.01746,0 36.10272,-18.13019 13.24292,-18.28784 13.24292,-50.29156 z m -98.69128,-61.64264 q 9.14392,-15.76538 23.01745,-23.33277 14.03119,-7.72503 33.42261,-7.72503 32.16138,0 52.18341,25.53991 20.17969,25.53992 20.17969,67.16053 0,41.6206 -20.17969,67.16052 -20.02203,25.53992 -52.18341,25.53992 -19.39142,0 -33.42261,-7.56739 -13.87353,-7.72503 -23.01745,-23.49042 l 0,26.48584 -29.16596,0 0,-245.30932 29.16596,0 0,95.53821 z"
         style="font-style:normal;font-variant:normal;font-weight:normal;font-stretch:normal;font-size:322.875px;font-family:sans-serif;-inkscape-font-specification:'sans-serif 258.2998046875'"
         id="path4222" />
    </g>
  </g>
  <g
     inkscape:groupmode="layer"
     id="layer2"
     inkscape:label="O" />
</svg>
